<?xml version="1.0" standalone="no"?>
<!DOCTYPE svg PUBLIC "-//W3C//DTD SVG 20010904//EN"
 "http://www.w3.org/TR/2001/REC-SVG-20010904/DTD/svg10.dtd">
<svg version="1.0" xmlns="http://www.w3.org/2000/svg"
 width="338.000000pt" height="166.000000pt" viewBox="0 0 338.000000 166.000000"
 preserveAspectRatio="xMidYMid meet">
<metadata>
Created by potrace 1.13, written by Peter Selinger 2001-2015
</metadata>
<g transform="translate(0.000000,166.000000) scale(0.100000,-0.100000)"
fill="#000000" stroke="none">
<path d="M2228 1573 c7 -3 16 -2 19 1 4 3 -2 6 -13 5 -11 0 -14 -3 -6 -6z"/>
<path d="M2342 1545 c0 -16 2 -22 5 -12 2 9 2 23 0 30 -3 6 -5 -1 -5 -18z"/>
<path d="M2260 1554 c0 -7 7 -25 15 -40 8 -16 15 -22 15 -14 -1 18 -29 70 -30
54z"/>
<path d="M800 1505 c0 -43 1 -45 30 -45 26 0 30 3 30 29 0 45 -10 61 -36 61
-22 0 -24 -4 -24 -45z"/>
<path d="M907 1544 c-11 -11 -8 -96 3 -89 14 8 24 75 13 86 -5 5 -12 6 -16 3z"/>
<path d="M2130 1536 c-14 -6 -30 -15 -37 -21 -6 -5 -37 -28 -69 -50 -31 -22
-85 -73 -119 -113 -60 -70 -145 -219 -145 -254 0 -9 -4 -19 -9 -22 -17 -11
-24 -82 -24 -251 0 -169 7 -240 24 -251 5 -3 9 -14 9 -24 0 -39 86 -184 157
-266 41 -46 77 -84 81 -84 4 0 23 -13 42 -30 19 -16 70 -47 115 -69 140 -68
165 -74 171 -36 2 10 5 29 9 42 3 13 1 23 -4 23 -5 0 -12 -14 -16 -30 -5 -23
-12 -30 -30 -30 -31 0 -37 11 -21 42 19 36 4 57 -17 24 -10 -14 -17 -30 -17
-35 0 -6 -7 -8 -15 -5 -17 7 -20 46 -5 75 6 10 7 19 3 19 -17 -1 -43 -28 -43
-44 0 -25 -34 -16 -38 10 -2 12 4 29 13 38 22 21 10 39 -15 23 -11 -6 -20 -17
-20 -23 0 -22 -29 -24 -40 -4 -6 11 -7 20 -2 20 14 0 35 47 27 60 -5 8 -18 1
-41 -21 l-34 -33 0 25 c0 14 9 35 19 46 11 12 17 24 14 27 -13 12 -39 5 -53
-14 -14 -20 -40 -27 -40 -12 0 5 20 30 45 58 24 27 44 52 45 57 0 16 21 5 57
-30 22 -21 51 -44 66 -50 15 -7 27 -17 27 -22 0 -6 7 -8 15 -5 9 4 18 -1 21
-11 4 -9 12 -14 20 -11 7 3 18 -1 24 -9 9 -11 60 -27 95 -30 6 0 16 -4 23 -9
21 -13 272 -10 285 3 6 6 21 11 34 11 12 0 49 14 81 30 33 17 64 30 69 30 15
0 183 164 183 178 0 7 9 22 20 34 11 12 20 30 20 39 0 10 5 21 10 24 6 3 10
15 10 26 0 10 5 19 10 19 6 0 10 13 10 29 0 17 5 33 10 36 6 4 10 60 10 135 0
75 -4 131 -10 135 -5 3 -10 21 -10 40 0 19 -4 37 -10 40 -5 3 -10 13 -10 22 0
8 -9 27 -20 43 -11 15 -17 30 -13 33 3 4 -2 9 -11 13 -9 3 -16 14 -16 25 0 10
-8 24 -18 31 -10 7 -21 21 -25 31 -3 9 -13 17 -22 17 -8 0 -15 7 -15 15 0 9
-8 19 -17 22 -10 4 -24 15 -31 25 -7 10 -22 18 -33 18 -10 0 -19 4 -19 9 0 5
-8 11 -17 14 -10 4 -37 18 -61 32 -23 14 -58 25 -77 25 -18 0 -37 5 -40 10
-15 25 -300 8 -357 -21 -10 -5 -26 -9 -36 -9 -11 0 -27 -9 -37 -20 -10 -11
-22 -17 -26 -14 -9 5 -28 -7 -57 -38 -9 -10 -22 -18 -29 -18 -6 0 -18 -8 -25
-18 -7 -11 -23 -24 -35 -31 -13 -6 -23 -19 -23 -27 0 -11 -6 -14 -16 -10 -11
4 -14 1 -9 -13 3 -10 -1 -24 -10 -31 -9 -7 -26 -35 -39 -62 -16 -33 -26 -45
-32 -37 -4 7 -3 14 4 17 7 2 12 17 12 33 0 16 5 29 10 29 6 0 10 7 10 15 0 8
-4 15 -10 15 -5 0 -10 4 -10 10 0 5 6 7 13 4 8 -3 18 6 25 20 9 21 9 24 -3 19
-8 -3 -15 -1 -15 4 0 6 -13 24 -29 41 -26 26 -28 32 -15 43 12 10 13 9 7 -6
-5 -14 -3 -17 9 -12 11 4 18 -2 22 -18 3 -12 13 -26 23 -29 15 -6 15 -4 -2 14
-17 19 -17 20 -1 20 10 0 26 -10 37 -22 13 -17 18 -19 19 -8 0 8 -20 36 -43
61 -37 38 -41 47 -29 58 11 11 16 10 28 -8 8 -11 24 -21 34 -21 10 0 21 -6 24
-12 3 -7 3 -2 -1 12 -3 14 -14 32 -24 41 -21 18 -24 35 -10 43 14 9 41 -4 41
-19 0 -7 7 -16 16 -19 18 -7 41 3 27 13 -5 3 -17 17 -26 30 -15 23 -15 26 -1
43 16 16 18 15 47 -25 36 -49 47 -36 17 18 -12 21 -20 38 -18 40 2 1 11 7 22
12 27 15 6 23 -24 9z m540 -229 c54 -15 141 -59 159 -81 8 -9 18 -16 24 -16 9
0 63 -53 93 -91 9 -13 61 -112 87 -167 6 -13 11 -69 11 -125 -1 -81 -6 -114
-24 -162 -69 -181 -210 -295 -405 -329 -79 -13 -90 -13 -162 5 -85 21 -116 34
-150 63 -24 21 -33 53 -10 40 9 -6 9 -4 -1 8 -7 9 -22 14 -35 12 -12 -2 -16
-2 -9 2 13 6 17 34 5 34 -12 0 -33 51 -33 77 0 13 -4 23 -10 23 -6 0 -10 33
-10 80 0 47 -4 80 -10 80 -16 0 -12 41 5 61 14 15 14 18 0 32 -17 18 -20 37
-5 37 15 0 12 50 -2 51 -10 0 -10 2 0 6 6 2 12 13 12 24 0 10 5 19 10 19 6 0
10 8 10 17 0 9 7 25 17 35 15 17 15 18 -3 19 -11 0 -13 3 -6 6 6 2 12 18 12
34 0 19 5 29 15 29 9 0 12 6 9 15 -4 9 3 24 16 35 18 16 20 23 11 34 -10 12
-5 20 29 42 22 15 64 35 93 45 62 21 192 24 257 6z m-760 -47 c0 -5 -4 -10
-10 -10 -5 0 -10 5 -10 10 0 6 5 10 10 10 6 0 10 -4 10 -10z m10 -30 c0 -5 -4
-10 -10 -10 -5 0 -10 5 -10 10 0 6 5 10 10 10 6 0 10 -4 10 -10z m30 -70 c0
-5 -2 -10 -4 -10 -3 0 -8 5 -11 10 -3 6 -1 10 4 10 6 0 11 -4 11 -10z m-36
-105 c-4 -8 -10 -15 -15 -15 -4 0 -6 7 -3 15 4 8 10 15 15 15 4 0 6 -7 3 -15z
m-25 -61 c-6 -8 -18 -14 -25 -14 -11 0 -10 4 3 19 9 11 20 18 25 15 5 -3 4
-12 -3 -20z m41 -39 c0 -8 -4 -15 -10 -15 -5 0 -10 7 -10 15 0 8 5 15 10 15 6
0 10 -7 10 -15z m-50 -9 c0 -2 -9 -6 -20 -9 -11 -3 -20 -1 -20 4 0 5 9 9 20 9
11 0 20 -2 20 -4z m-4 -165 c-5 -8 -56 -3 -56 5 0 2 14 4 31 4 16 0 28 -4 25
-9z m-16 -41 c0 -13 -11 -13 -30 0 -12 8 -11 10 8 10 12 0 22 -4 22 -10z m64
-39 c-4 -3 -9 -1 -11 6 -2 7 -10 10 -18 7 -15 -6 -29 11 -20 26 3 5 17 0 30
-12 14 -12 22 -24 19 -27z m-14 -26 c21 -25 1 -31 -22 -7 -18 18 -19 22 -6 22
8 0 21 -7 28 -15z m29 -65 c6 0 11 -4 11 -10 0 -14 -7 -13 -35 6 -14 9 -22 21
-18 27 4 6 11 4 18 -6 7 -10 17 -17 24 -17z m-3 -44 c3 -8 13 -16 23 -19 10
-2 29 -25 41 -51 13 -25 29 -46 37 -46 21 0 15 -26 -11 -55 -26 -28 -48 -17
-24 13 12 16 11 16 -12 0 -14 -9 -24 -23 -22 -32 3 -18 -13 -22 -23 -5 -4 5 3
18 14 28 12 10 21 23 21 30 0 6 6 11 13 11 6 0 -5 16 -25 34 -21 19 -34 37
-29 41 5 3 12 1 16 -5 3 -5 12 -10 18 -10 7 0 -5 15 -25 33 -21 18 -38 36 -38
40 0 13 21 7 26 -7z m-56 -60 c0 -3 -4 -8 -10 -11 -5 -3 -10 -1 -10 4 0 6 5
11 10 11 6 0 10 -2 10 -4z m40 -66 c0 -5 -4 -10 -10 -10 -5 0 -10 5 -10 10 0
6 5 10 10 10 6 0 10 -4 10 -10z m30 -10 c0 -5 -4 -10 -10 -10 -5 0 -10 5 -10
10 0 6 5 10 10 10 6 0 10 -4 10 -10z m-40 -20 c0 -5 -5 -10 -11 -10 -5 0 -7 5
-4 10 3 6 8 10 11 10 2 0 4 -4 4 -10z m40 -60 c0 -5 -4 -10 -10 -10 -5 0 -10
5 -10 10 0 6 5 10 10 10 6 0 10 -4 10 -10z"/>
<path d="M2250 520 c0 -5 5 -10 11 -10 5 0 7 5 4 10 -3 6 -8 10 -11 10 -2 0
-4 -4 -4 -10z"/>
<path d="M660 1529 c0 -29 24 -89 37 -89 7 0 13 1 13 3 -3 43 -50 125 -50 86z"/>
<path d="M738 1533 c-8 -13 3 -83 13 -83 10 0 12 12 9 50 -2 27 -15 47 -22 33z"/>
<path d="M2193 1511 c6 -17 17 -33 23 -35 10 -4 9 3 -1 27 -17 42 -38 49 -22
8z"/>
<path d="M2801 1524 c0 -11 3 -14 6 -6 3 7 2 16 -1 19 -3 4 -6 -2 -5 -13z"/>
<path d="M966 1508 c-9 -34 -7 -68 3 -68 10 0 21 34 21 68 0 12 -4 22 -9 22
-5 0 -11 -10 -15 -22z"/>
<path d="M1036 1496 c-18 -43 -21 -80 -6 -71 12 7 33 82 27 98 -2 7 -12 -5
-21 -27z"/>
<path d="M2872 1510 c-18 -29 -15 -38 4 -12 9 13 14 25 12 27 -2 2 -9 -5 -16
-15z"/>
<path d="M531 1488 c16 -59 31 -88 45 -88 18 0 18 9 -1 51 -16 36 -39 69 -48
69 -3 0 -1 -15 4 -32z"/>
<path d="M600 1503 c0 -29 24 -83 35 -79 5 2 8 10 6 17 -2 8 -6 26 -9 41 -5
30 -32 48 -32 21z"/>
<path d="M450 1500 c0 -5 5 -10 11 -10 5 0 7 5 4 10 -3 6 -8 10 -11 10 -2 0
-4 -4 -4 -10z"/>
<path d="M1093 1463 c-7 -15 -13 -36 -13 -47 0 -18 2 -18 13 -6 18 21 37 67
30 74 -11 11 -18 6 -30 -21z"/>
<path d="M2932 1470 c-17 -27 -15 -35 4 -16 8 9 14 21 12 26 -2 6 -9 1 -16
-10z"/>
<path d="M470 1453 c18 -50 33 -73 47 -73 16 0 17 14 1 43 -33 57 -65 78 -48
30z"/>
<path d="M387 1464 c-6 -6 3 -23 47 -91 22 -34 53 -46 42 -17 -3 9 -6 19 -6
22 0 12 -77 92 -83 86z"/>
<path d="M1147 1424 c-18 -36 -17 -51 2 -40 8 6 41 63 41 73 0 1 -6 3 -12 3
-7 0 -21 -17 -31 -36z"/>
<path d="M2992 1430 c-18 -29 -15 -36 8 -15 20 18 26 35 12 35 -4 0 -13 -9
-20 -20z"/>
<path d="M328 1424 c-7 -7 42 -82 70 -107 28 -26 38 -4 14 31 -29 39 -77 83
-84 76z"/>
<path d="M3090 1426 c0 -10 50 -59 56 -54 2 3 -10 17 -26 33 -17 16 -30 25
-30 21z"/>
<path d="M1200 1388 c-27 -45 -13 -56 21 -16 32 38 35 48 14 48 -8 0 -24 -14
-35 -32z"/>
<path d="M3045 1380 c-10 -11 -13 -20 -8 -20 13 0 38 29 31 35 -3 3 -13 -4
-23 -15z"/>
<path d="M1262 1357 c-12 -13 -22 -32 -22 -43 0 -15 6 -12 30 16 16 19 30 38
30 43 0 14 -17 7 -38 -16z"/>
<path d="M312 1314 c35 -35 60 -54 68 -49 16 10 -77 105 -104 105 -15 0 -6
-13 36 -56z"/>
<path d="M3102 1337 c-29 -30 -28 -44 0 -17 12 11 25 20 30 20 4 0 8 5 8 10 0
17 -15 11 -38 -13z"/>
<path d="M1310 1311 c-18 -16 -30 -35 -28 -41 2 -6 19 5 37 24 43 44 34 59 -9
17z"/>
<path d="M220 1313 c0 -8 39 -46 87 -87 21 -17 23 -17 29 -2 7 18 -3 28 -68
71 -40 27 -48 29 -48 18z"/>
<path d="M3140 1275 c-16 -19 -1 -19 24 0 16 12 17 15 4 15 -8 0 -21 -7 -28
-15z"/>
<path d="M1345 1255 c-16 -13 -26 -27 -23 -31 8 -8 68 33 68 47 0 15 -13 10
-45 -16z"/>
<path d="M180 1258 c0 -31 109 -103 128 -83 8 8 -47 55 -64 55 -6 0 -23 9 -38
21 -18 14 -26 16 -26 7z"/>
<path d="M1393 1210 c-44 -26 -42 -44 2 -23 19 9 35 23 35 30 0 16 1 17 -37
-7z"/>
<path d="M3180 1214 c-14 -8 -18 -14 -10 -14 8 1 24 7 34 15 24 19 10 18 -24
-1z"/>
<path d="M142 1188 c4 -13 105 -78 121 -78 5 0 7 8 5 17 -2 9 -28 29 -58 44
-62 32 -73 34 -68 17z"/>
<path d="M1428 1154 c-38 -20 -36 -38 2 -19 17 9 30 20 30 25 0 12 1 12 -32
-6z"/>
<path d="M3208 1143 c7 -3 16 -2 19 1 4 3 -2 6 -13 5 -11 0 -14 -3 -6 -6z"/>
<path d="M105 1120 c8 -13 111 -60 130 -60 21 0 19 17 -3 29 -27 14 -105 41
-120 41 -7 0 -10 -4 -7 -10z"/>
<path d="M1475 1100 c-3 -5 -15 -10 -25 -10 -18 0 -36 -17 -28 -26 7 -6 68 26
68 37 0 12 -7 12 -15 -1z"/>
<path d="M3248 1083 c7 -3 16 -2 19 1 4 3 -2 6 -13 5 -11 0 -14 -3 -6 -6z"/>
<path d="M80 1055 c0 -8 6 -15 13 -15 8 0 27 -7 44 -15 47 -24 93 -30 93 -13
0 16 -53 38 -93 38 -14 0 -29 5 -32 10 -9 15 -25 12 -25 -5z"/>
<path d="M1490 1029 c0 -5 5 -7 10 -4 6 3 10 8 10 11 0 2 -4 4 -10 4 -5 0 -10
-5 -10 -11z"/>
<path d="M1445 1019 c-11 -17 -2 -18 19 -3 17 12 17 14 4 14 -9 0 -20 -5 -23
-11z"/>
<path d="M60 980 c0 -5 12 -12 28 -16 15 -3 43 -10 62 -15 48 -12 60 -11 60 5
0 8 -21 17 -57 25 -69 14 -93 14 -93 1z"/>
<path d="M1460 960 c0 -5 5 -10 10 -10 6 0 10 5 10 10 0 6 -4 10 -10 10 -5 0
-10 -4 -10 -10z"/>
<path d="M60 908 c0 -5 11 -8 24 -8 14 0 28 -4 31 -10 10 -17 85 -12 85 5 0
10 -11 15 -32 16 -18 1 -50 2 -70 3 -21 0 -38 -2 -38 -6z"/>
<path d="M50 835 c0 -12 14 -15 76 -15 56 0 75 3 72 13 -3 8 -30 13 -76 15
-60 2 -72 0 -72 -13z"/>
<path d="M1518 833 c6 -2 18 -2 25 0 6 3 1 5 -13 5 -14 0 -19 -2 -12 -5z"/>
<path d="M110 775 c-73 -14 -73 -15 -10 -21 56 -4 102 4 97 19 -5 16 -15 16
-87 2z"/>
<path d="M3278 723 c7 -3 16 -2 19 1 4 3 -2 6 -13 5 -11 0 -14 -3 -6 -6z"/>
<path d="M110 708 c-56 -15 -59 -28 -8 -28 49 0 108 17 108 31 0 12 -55 10
-100 -3z"/>
<path d="M155 653 c-11 -3 -24 -9 -29 -14 -6 -5 -18 -9 -28 -9 -10 0 -18 -7
-18 -15 0 -17 16 -20 25 -5 3 6 19 10 34 10 38 0 92 20 85 31 -5 9 -35 10 -69
2z"/>
<path d="M1440 650 c0 -5 5 -10 10 -10 6 0 10 5 10 10 0 6 -4 10 -10 10 -5 0
-10 -4 -10 -10z"/>
<path d="M1490 640 c0 -6 7 -10 15 -10 8 0 15 2 15 4 0 2 -7 6 -15 10 -8 3
-15 1 -15 -4z"/>
<path d="M200 600 c-8 -4 -32 -16 -52 -24 -53 -23 -61 -41 -15 -32 55 10 109
35 105 48 -6 16 -20 19 -38 8z"/>
<path d="M1426 591 c5 -5 23 -12 39 -16 30 -6 30 -6 -4 10 -38 17 -49 19 -35
6z"/>
<path d="M3248 583 c7 -3 16 -2 19 1 4 3 -2 6 -13 5 -11 0 -14 -3 -6 -6z"/>
<path d="M195 524 c-22 -13 -46 -27 -52 -30 -22 -10 -14 -26 10 -19 45 12 117
50 117 63 0 19 -31 13 -75 -14z"/>
<path d="M1400 535 c0 -7 8 -15 18 -18 9 -2 26 -8 36 -13 31 -12 10 12 -24 30
-24 11 -30 12 -30 1z"/>
<path d="M3208 523 c7 -3 16 -2 19 1 4 3 -2 6 -13 5 -11 0 -14 -3 -6 -6z"/>
<path d="M255 482 c-53 -29 -96 -65 -87 -74 10 -10 132 57 132 72 0 17 -15 18
-45 2z"/>
<path d="M1385 465 c17 -14 37 -25 45 -25 9 1 4 10 -15 25 -16 14 -37 25 -45
25 -9 -1 -4 -10 15 -25z"/>
<path d="M299 437 c-51 -39 -89 -79 -84 -87 10 -16 115 63 115 87 0 16 -10 16
-31 0z"/>
<path d="M3200 446 c0 -2 7 -6 15 -10 8 -3 15 -1 15 4 0 6 -7 10 -15 10 -8 0
-15 -2 -15 -4z"/>
<path d="M1337 434 c-3 -4 8 -18 24 -31 31 -27 51 -25 29 2 -17 21 -46 36 -53
29z"/>
<path d="M306 353 c-51 -51 -66 -94 -18 -52 72 63 91 83 86 91 -10 15 -22 8
-68 -39z"/>
<path d="M1313 355 c41 -38 47 -41 47 -22 0 18 -46 57 -67 57 -12 0 -7 -10 20
-35z"/>
<path d="M3160 386 c0 -2 7 -6 15 -10 8 -3 15 -1 15 4 0 6 -7 10 -15 10 -8 0
-15 -2 -15 -4z"/>
<path d="M356 308 c-46 -53 -54 -68 -37 -68 12 0 101 89 101 100 0 26 -23 14
-64 -32z"/>
<path d="M3191 344 c0 -11 3 -14 6 -6 3 7 2 16 -1 19 -3 4 -6 -2 -5 -13z"/>
<path d="M1262 318 c28 -36 48 -47 48 -26 0 18 -42 58 -59 58 -9 0 -5 -11 11
-32z"/>
<path d="M3110 335 c7 -8 17 -15 22 -15 6 0 5 7 -2 15 -7 8 -17 15 -22 15 -6
0 -5 -7 2 -15z"/>
<path d="M423 290 c-13 -15 -23 -32 -23 -37 0 -5 -9 -19 -20 -31 -11 -12 -16
-24 -10 -27 16 -10 106 98 95 115 -9 15 -18 11 -42 -20z"/>
<path d="M1200 297 c0 -7 14 -26 30 -42 35 -33 40 -18 8 25 -23 32 -38 38 -38
17z"/>
<path d="M483 263 c-26 -39 -55 -104 -49 -111 8 -7 43 36 67 82 26 48 11 72
-18 29z"/>
<path d="M3068 267 c24 -25 29 -47 10 -47 -6 0 -8 -3 -5 -6 10 -10 38 17 30
29 -3 5 -1 7 4 4 6 -4 18 2 28 13 10 12 13 20 7 20 -7 0 -12 -4 -12 -10 0 -15
-26 -12 -40 5 -7 8 -19 15 -28 15 -12 0 -11 -5 6 -23z"/>
<path d="M1148 274 c-8 -7 18 -58 37 -74 22 -18 20 13 -2 51 -17 29 -25 34
-35 23z"/>
<path d="M528 211 c-10 -22 -20 -52 -24 -68 -6 -24 -5 -26 8 -16 12 11 29 39
66 116 2 4 -5 7 -15 7 -12 0 -24 -14 -35 -39z"/>
<path d="M1103 205 c21 -45 37 -58 37 -30 0 25 -29 75 -44 75 -10 0 -9 -11 7
-45z"/>
<path d="M3000 243 c0 -6 7 -18 15 -27 19 -18 19 -24 1 -42 -21 -21 -32 -17
-55 19 -23 35 -28 26 -9 -15 18 -37 41 -40 72 -12 14 14 28 24 32 23 3 0 8 2
12 5 3 3 -1 6 -8 6 -8 0 -24 12 -37 28 -12 15 -22 22 -23 15z"/>
<path d="M592 197 c-7 -18 -12 -43 -12 -55 0 -11 -5 -24 -10 -27 -12 -7 -4
-25 11 -25 5 0 9 6 9 13 0 7 9 32 20 55 11 22 20 48 20 57 0 28 -26 16 -38
-18z"/>
<path d="M1036 203 c4 -15 14 -41 22 -58 21 -40 27 -13 10 40 -16 47 -43 62
-32 18z"/>
<path d="M652 165 c-7 -25 -12 -55 -12 -67 0 -33 22 -7 37 45 16 54 16 67 0
67 -7 0 -18 -20 -25 -45z"/>
<path d="M977 173 c3 -21 12 -45 19 -53 12 -12 14 -11 14 12 0 34 -17 78 -29
78 -6 0 -7 -16 -4 -37z"/>
<path d="M719 173 c-1 -16 -2 -47 -3 -70 -2 -51 9 -57 18 -10 18 86 19 107 2
107 -11 0 -16 -9 -17 -27z"/>
<path d="M916 191 c-3 -5 -1 -32 4 -61 6 -29 10 -55 11 -59 0 -3 5 8 10 24 14
47 -7 126 -25 96z"/>
<path d="M780 126 c0 -63 12 -92 24 -60 3 9 6 40 6 70 0 41 -4 54 -15 54 -12
0 -15 -14 -15 -64z"/>
<path d="M850 153 c0 -45 14 -74 23 -49 8 20 -3 86 -14 86 -5 0 -9 -17 -9 -37z"/>
<path d="M2880 168 c0 -8 7 -21 15 -28 19 -16 19 -1 0 24 -12 16 -15 17 -15 4z"/>
<path d="M2816 123 c7 -31 12 -38 18 -32 7 7 -6 59 -15 59 -5 0 -6 -12 -3 -27z"/>
<path d="M2745 115 c4 -16 11 -34 16 -40 15 -15 10 17 -7 45 l-15 25 6 -30z"/>
<path d="M2950 130 c0 -5 -10 -11 -22 -11 -17 -1 -18 -3 -6 -6 10 -2 28 3 40
11 18 13 19 16 5 16 -9 0 -17 -4 -17 -10z"/>
<path d="M2396 111 c-4 -7 -5 -15 -2 -18 9 -9 19 4 14 18 -4 11 -6 11 -12 0z"/>
<path d="M2463 70 c0 -25 2 -35 4 -22 2 12 2 32 0 45 -2 12 -4 2 -4 -23z"/>
<path d="M2602 90 c0 -14 2 -19 5 -12 2 6 2 18 0 25 -3 6 -5 1 -5 -13z"/>
<path d="M2682 80 c0 -19 2 -27 5 -17 2 9 2 25 0 35 -3 9 -5 1 -5 -18z"/>
<path d="M2537 73 c-3 -16 -1 -32 4 -38 5 -5 9 5 9 28 0 44 -6 48 -13 10z"/>
<path d="M2888 93 c7 -3 16 -2 19 1 4 3 -2 6 -13 5 -11 0 -14 -3 -6 -6z"/>
<path d="M2380 65 c0 -8 5 -15 10 -15 6 0 10 7 10 15 0 8 -4 15 -10 15 -5 0
-10 -7 -10 -15z"/>
<path d="M2838 73 c7 -3 16 -2 19 1 4 3 -2 6 -13 5 -11 0 -14 -3 -6 -6z"/>
<path d="M2778 53 c6 -2 18 -2 25 0 6 3 1 5 -13 5 -14 0 -19 -2 -12 -5z"/>
<path d="M2338 31 c12 -7 62 -4 62 5 0 2 -17 4 -37 4 -24 0 -33 -3 -25 -9z"/>
<path d="M2703 33 c9 -2 23 -2 30 0 6 3 -1 5 -18 5 -16 0 -22 -2 -12 -5z"/>
</g>
</svg>
